Coordinates
version=1
nRows=10
nColumns=40
inDegrees=yes

Units are S.I. units (second, meters, Newtons, ...)
Angles are in degrees.

endheader
time	pelvis_tilt	pelvis_list	pelvis_rotation	pelvis_tx	pelvis_ty	pelvis_tz	hip_flexion_r	hip_adduction_r	hip_rotation_r	knee_angle_r	knee_angle_r_beta	ankle_angle_r	subtalar_angle_r	mtp_angle_r	hip_flexion_l	hip_adduction_l	hip_rotation_l	knee_angle_l	knee_angle_l_beta	ankle_angle_l	subtalar_angle_l	mtp_angle_l	lumbar_extension	lumbar_bending	lumbar_rotation	arm_flex_r	arm_add_r	arm_rot_r	elbow_flex_r	pro_sup_r	wrist_flex_r	wrist_dev_r	arm_flex_l	arm_add_l	arm_rot_l	elbow_flex_l	pro_sup_l	wrist_flex_l	wrist_dev_l
      0.00000000	     -4.77018456	     13.17089808	     76.66308673	      0.55491771	      0.96207929	     -0.98280019	     20.67981303	     -3.01394530	     13.09468262	     13.59110347	      0.23720950	      7.65078710	      0.00000000	      0.00000000	    -29.84919030	     13.11179133	    -12.51367734	      5.64654749	      0.09855084	     19.53700825	      0.00000000	      0.00000000	    -28.49081194	     -8.03189828	      3.09467270	      2.85524801	     -8.74100690	      3.63481243	    135.60060859	     85.94487711	      0.00000000	      0.00000000	      3.52197433	    -12.20794453	      2.70855922	    136.99173246	     81.90665484	      0.00000000	      0.00000000
      0.01000000	     -4.78342221	     13.06182727	     76.64196507	      0.55658854	      0.96014798	     -0.98462550	     21.09649960	     -2.90130378	     12.56312015	     15.29403026	      0.26693118	      6.79609051	      0.00000000	      0.00000000	    -29.86206993	     12.95609147	    -12.76372376	      6.92808025	      0.12091781	     19.44912510	      0.00000000	      0.00000000	    -28.10753454	     -7.96146782	      3.27721547	      2.68181965	     -8.64693348	      3.48610971	    135.55478138	     85.94084095	      0.00000000	      0.00000000	      3.06719061	    -11.75539946	      2.57356616	    136.86522324	     81.93684354	      0.00000000	      0.00000000
      0.02000000	     -4.81488819	     12.91027375	     76.56819359	      0.55894043	      0.95779948	     -0.98718457	     21.63163731	     -2.73943154	     12.03353377	     17.39039709	      0.30351969	      5.80132982	      0.00000000	      0.00000000	    -29.86608940	     12.79171332	    -12.95217537	      8.53050194	      0.14888535	     19.12988771	      0.00000000	      0.00000000	    -27.53399867	     -7.90462158	      3.56256608	      2.43223410	     -8.50813806	      3.34047705	    135.52661161	     85.94454062	      0.00000000	      0.00000000	      2.46430314	    -11.19689914	      2.43633376	    136.71682304	     81.98600833	      0.00000000	      0.00000000
      0.03000000	     -4.79583675	     12.83518735	     76.39696858	      0.56129457	      0.95611190	     -0.98939518	     22.07153688	     -2.48879853	     11.86434968	     19.20046734	      0.33511137	      4.83558233	      0.00000000	      0.00000000	    -29.86476892	     12.64123708	    -13.05073436	     10.02835021	      0.17502773	     18.69290159	      0.00000000	      0.00000000	    -27.08244707	     -7.85367823	      3.92142317	      2.22681977	     -8.39755299	      3.23393243	    135.52268076	     85.93890675	      0.00000000	      0.00000000	      1.97198523	    -10.72720153	      2.29800340	    136.57873966	     82.00934527	      0.00000000	      0.00000000
      0.04000000	     -4.57058178	     12.80023376	     76.25866624	      0.56409462	      0.95486039	     -0.99174360	     22.21069589	     -1.98852163	     12.13993355	     20.73505077	      0.36189491	      4.03917175	      0.00000000	      0.00000000	    -29.86723309	     12.23487969	    -12.82915647	     11.75836009	      0.20522210	     18.12938600	      0.00000000	      0.00000000	    -26.68667088	     -7.61017741	      4.31605912	      2.03009888	     -8.30648516	      3.11869869	    135.45162732	     85.91815991	      0.00000000	      0.00000000	      1.49783059	    -10.26080680	      2.15725094	    136.38258184	     82.01742304	      0.00000000	      0.00000000
      0.05000000	     -4.43585136	     12.88214043	     75.83793843	      0.56710955	      0.95364815	     -0.99428527	     22.71082915	     -1.53977767	     12.17651666	     23.09278267	      0.40304509	      3.54442384	      0.00000000	      0.00000000	    -29.86300510	     12.04488496	    -13.26424524	     13.58248653	      0.23705911	     17.12418885	      0.00000000	      0.00000000	    -26.34764140	     -7.59044285	      4.92160327	      1.84626374	     -8.28690552	      2.89487032	    135.55260181	     85.87855235	      0.00000000	      0.00000000	      1.01330600	     -9.76205695	      2.03163127	    136.28310849	     82.17317337	      0.00000000	      0.00000000
      0.06000000	     -3.97709970	     13.05941020	     75.70837374	      0.56984791	      0.95342851	     -0.99695462	     22.78524115	     -0.89700332	     12.36806619	     25.33096644	      0.44210877	      3.56507628	      0.00000000	      0.00000000	    -29.86022489	     11.38917870	    -13.33094081	     15.72541806	      0.27446032	     16.04439383	      0.00000000	      0.00000000	    -26.22522981	     -7.14931645	      5.32352772	      1.76354603	     -8.25388066	      2.63140989	    135.58565229	     85.86161527	      0.00000000	      0.00000000	      0.60371574	     -9.24292012	      1.86175379	    136.18004261	     82.21404281	      0.00000000	      0.00000000
      0.07000000	     -3.45543519	     13.33399954	     75.70937715	      0.57230892	      0.95370857	     -0.99989233	     22.61393595	     -0.28810074	     12.66922519	     27.54748632	      0.48079434	      3.93321035	      0.00000000	      0.00000000	    -29.85730105	     10.60699436	    -13.30008748	     18.08360804	      0.31561850	     14.86888763	      0.00000000	      0.00000000	    -26.21945299	     -6.60288099	      5.60785230	      1.65372333	     -8.30050467	      2.38675131	    135.64798470	     85.83837280	      0.00000000	      0.00000000	      0.20216549	     -8.71608523	      1.70923701	    136.06543615	     82.26945157	      0.00000000	      0.00000000
      0.08000000	     -2.79027864	     13.75228398	     75.73555626	      0.57464485	      0.95464238	     -1.00290271	     21.95182656	      0.37219348	     12.93671020	     29.35152390	      0.51228073	      4.62919843	      0.00000000	      0.00000000	    -29.85115614	      9.69029136	    -13.24096881	     20.67113324	      0.36077934	     13.36173971	      0.00000000	      0.00000000	    -26.42020485	     -5.92092849	      5.87079321	      1.60837303	     -8.42097663	      2.11512946	    135.75985311	     85.82705340	      0.00000000	      0.00000000	     -0.15035836	     -8.16168392	      1.51875992	    136.01216930	     82.34203000	      0.00000000	      0.00000000
      0.09000000	     -1.58175595	     14.35823646	     75.94200616	      0.57679405	      0.95689541	     -1.00563706	     20.42792801	      1.40046689	     12.89180675	     30.35992993	      0.52988074	      5.60477393	      0.00000000	      0.00000000	    -29.84686881	      8.09168983	    -13.27570419	     23.75647957	      0.41462879	     11.77339224	      0.00000000	      0.00000000	    -27.03099012	     -4.67285117	      6.01732130	      1.74448986	     -8.65328667	      1.86706008	    135.83718666	     85.83864317	      0.00000000	      0.00000000	     -0.40862309	     -7.51643340	      1.27660315	    135.95748651	     82.56068014	      0.00000000	      0.00000000
